<svg width="404" height="404" viewBox="0 0 404 404" xmlns="http://www.w3.org/2000/svg">
  <g>
    <path class="a" d="M399.7,31.79c-11.47,27.08-27.32,51.41-45.4,74.51a39.32,39.32,0,0,1-21.79,14.62c-19.24,5.25-38.65,8.77-58.61,9.13a24.73,24.73,0,0,0-3.11.17c-4.19.62-6.65,3.51-6.35,7.42.27,3.69,3,6.24,7.09,6.27a188.28,188.28,0,0,0,27.15-1.9c6.16-.86,12.27-2,18.39-3.18,2-.37,3.61-.2,4.7,1.68s.15,3.25-1.06,4.53c-9.48,10-19.42,19.54-30.65,27.54-8.56,6.09-18.61,8.31-28.88,9.51-13,1.53-25.9.64-38.77-1.35-.77-.11-1.55-.14-2.32-.24-1.81-.21-3.48,0-4.25,1.91-.84,2,.21,3.42,1.77,4.65A86.13,86.13,0,0,0,262,205.14c1.94.21,4,.35,4.62,2.77.56,2.17-1,3.33-2.3,4.57a826.69,826.69,0,0,1-67.13,57.42,39.77,39.77,0,0,0-3.69,2.85c-11,10.73-24.91,13.11-39.4,13.61a96,96,0,0,1-39.14-7c-1.92-.77-3.82-1.92-5.74-.06s-.78,3.89,0,5.77a37.2,37.2,0,0,0,17.26,19.8c.68.37,1.36.75,2,1.11,1.48.78,2.5,1.85,2.38,3.66-.13,2-1.47,2.89-3.23,3.38-22.24,6.14-44.6,11-67.87,6.74a426.29,426.29,0,0,1,26.4-46.58,606.9,606.9,0,0,1,99.93-118.95A685.24,685.24,0,0,1,248.54,103c5.24-3.81,5.1-8.94-.31-12.5a9.43,9.43,0,0,0,4.25-1.79A433.44,433.44,0,0,1,396.1,31.27C397.33,31,398.66,30.55,399.7,31.79Z" transform="translate(0 0)"/>
    <path class="b" d="M399.7,31.79c-1-1.24-2.37-.77-3.6-.52A433.44,433.44,0,0,0,252.48,88.73a9.43,9.43,0,0,1-4.25,1.79c-2.78-1-5.26-.23-7.83,1-30.7,14.84-58.2,34.48-83.75,56.81-49.05,42.87-93.31,90-126.32,146.71C26.93,277.61,25,260,25.68,242.24c1.07-25.92,6.29-50.76,21.26-72.67a83.9,83.9,0,0,1,11.2-13.4c3.89-3.71,6.6-3,8,2.08,2.07,7.84,6.31,14.41,11.75,20.29a12.94,12.94,0,0,0,2,1.81c2.88,2,5.28.89,5.67-2.63A577.76,577.76,0,0,1,98,106.92a13.73,13.73,0,0,1,3.36-6.82c5.39-5.44,10.73-10.92,16.21-16.26,1.52-1.48,3.27-3.2,5.8-1.58s1.71,3.75,1.14,5.88c-2.83,10.66-3.68,21.6-4.54,32.54a10.47,10.47,0,0,0,.67,5c1.23,3,3.47,4.52,6.67,4.26s5.4-2,5.78-5.29c.65-5.65.92-11.34,1.58-17a147.23,147.23,0,0,1,13.93-47.71,8,8,0,0,1,2.91-3.05,301.26,301.26,0,0,1,44.3-24.95c1.94-.87,3.94-1.75,5.73.12s.84,3.87-.08,5.75a84.74,84.74,0,0,0-5.07,13.41c-1.46,4.92.16,8.41,4.24,9.73,3.84,1.24,7.05-.69,8.6-5.64C212.11,46,216.65,37.46,221.45,29c4.36-7.7,10.57-11.62,19-13.62,17.61-4.2,35.25-7.62,53.39-8.6C323.41,5.17,352.4,7.88,380.67,17a94.34,94.34,0,0,1,17.06,7.38C401.53,26.48,401.85,27.7,399.7,31.79Z" transform="translate(0 0)"/>
    <path class="c" d="M30.33,295.05c33-56.74,77.27-103.84,126.32-146.71,25.55-22.33,53-42,83.75-56.81,2.57-1.24,5-2,7.83-1,5.41,3.56,5.55,8.69.31,12.5a685.24,685.24,0,0,0-62.42,51.17,606.9,606.9,0,0,0-99.93,119,426.29,426.29,0,0,0-26.4,46.58,241.3,241.3,0,0,0-18.41,44.76c-2.8,9.16-7.44,16.69-15.2,22.34-3.45,2.52-6.75,5.26-10,8-2.62,2.15-5.41,3.18-8.57,1.44s-4-4.79-3.6-8.32a280.94,280.94,0,0,1,25.67-91.09C29.9,296.26,30.1,295.65,30.33,295.05Z" transform="translate(0 0)"/>
  </g>
  <defs>
    <style>
      .a { fill: #566181; }
      .b { fill: #8797ca; }
      .c { fill: #2e313a; }
    </style>
  </defs>
</svg>
